<svg id="canvas" width="158.25" height="86.25" viewBox="451.551 280.938 316.543 172.416" preserveAspectRatio="xMidYMid meet" class="h-full w-full max-w-4xl text-primary transition-opacity duration-300 opacity-100" xmlns="http://www.w3.org/2000/svg"><g id="canvas-strokes"><path d="M 504.23,291.56 C 502.95 291.69, 502.01 292.14, 500.40 293.89 C 498.80 295.65, 498.17 297.10, 496.20 300.32 C 494.23 303.54, 493.15 305.76, 490.56 310.00 C 487.97 314.24, 486.39 316.76, 483.25 321.52 C 480.11 326.29, 478.19 328.99, 474.87 333.82 C 471.55 338.65, 469.71 341.35, 466.66 345.69 C 463.61 350.02, 461.75 352.15, 459.61 355.48 C 457.47 358.81, 456.29 360.52, 455.94 362.35 C 455.60 364.19, 456.70 364.66, 457.89 364.65 C 459.07 364.65, 460.90 363.80, 461.88 362.35 C 462.85 360.90, 463.70 358.81, 462.76 357.40 C 461.82 356.00, 458.81 354.86, 457.17 355.33 C 455.54 355.79, 454.78 357.91, 454.58 359.73 C 454.39 361.54, 455.15 363.38, 456.19 364.40 C 457.22 365.42, 458.16 366.02, 459.77 364.83 C 461.38 363.63, 462.14 361.78, 464.25 358.44 C 466.36 355.10, 467.52 352.59, 470.33 348.14 C 473.15 343.69, 475.00 341.01, 478.32 336.19 C 481.64 331.38, 483.59 328.70, 486.93 324.06 C 490.27 319.43, 492.03 317.01, 495.01 313.01 C 498.00 309.02, 499.64 307.16, 501.86 304.10 C 504.09 301.03, 505.17 299.85, 506.15 297.68 C 507.13 295.51, 507.16 294.45, 506.77 293.23 C 506.39 292.00, 505.50 291.43, 504.23 291.56" style="stroke: black; fill: black;"/><path d="M 488.47,284.47 C 487.57 285.10, 487.25 285.63, 486.83 287.35 C 486.42 289.07, 485.98 290.31, 486.40 293.07 C 486.81 295.83, 487.85 297.53, 488.91 301.17 C 489.97 304.81, 490.55 307.00, 491.69 311.25 C 492.83 315.51, 493.41 317.94, 494.62 322.46 C 495.83 326.98, 496.42 329.42, 497.74 333.84 C 499.05 338.27, 499.75 340.58, 501.19 344.59 C 502.64 348.61, 503.35 350.59, 504.97 353.92 C 506.58 357.25, 507.30 358.96, 509.25 361.25 C 511.20 363.55, 512.59 364.38, 514.72 365.40 C 516.85 366.42, 518.24 366.48, 519.90 366.35 C 521.57 366.21, 522.49 365.55, 523.06 364.72 C 523.63 363.88, 523.26 362.88, 522.75 362.17 C 522.24 361.46, 521.51 361.64, 520.53 361.19 C 519.55 360.73, 519.06 360.77, 517.85 359.89 C 516.64 359.01, 515.99 358.55, 514.47 356.79 C 512.96 355.03, 511.94 353.92, 510.28 351.10 C 508.62 348.27, 507.72 346.42, 506.18 342.67 C 504.65 338.93, 503.92 336.68, 502.62 332.38 C 501.32 328.08, 500.73 325.67, 499.69 321.19 C 498.64 316.71, 498.14 314.28, 497.40 310.00 C 496.67 305.72, 496.39 303.48, 496.02 299.79 C 495.65 296.09, 496.07 294.18, 495.56 291.51 C 495.05 288.84, 494.32 287.92, 493.48 286.46 C 492.64 284.99, 492.35 284.59, 491.34 284.19 C 490.34 283.80, 489.37 283.84, 488.47 284.47" style="stroke: black; fill: black;"/><path d="M 588.47,291.15 C 588.18 289.96, 587.57 289.10, 585.86 288.13 C 584.15 287.16, 582.77 286.43, 579.92 286.29 C 577.07 286.14, 575.09 286.53, 571.61 287.42 C 568.12 288.32, 566.15 289.22, 562.50 290.76 C 558.84 292.31, 556.78 293.22, 553.34 295.15 C 549.90 297.07, 547.91 298.02, 545.29 300.39 C 542.67 302.76, 541.36 304.19, 540.23 306.99 C 539.11 309.79, 538.95 311.55, 539.66 314.39 C 540.37 317.23, 541.24 318.91, 543.78 321.21 C 546.32 323.50, 548.47 324.12, 552.35 325.87 C 556.24 327.63, 558.71 328.37, 563.18 329.99 C 567.65 331.61, 570.35 332.34, 574.72 333.96 C 579.09 335.59, 581.58 336.47, 585.04 338.11 C 588.50 339.74, 589.94 340.96, 592.01 342.16 C 594.09 343.36, 594.91 343.46, 595.42 344.10 C 595.92 344.75, 595.67 344.72, 594.55 345.40 C 593.42 346.08, 592.40 346.33, 589.79 347.51 C 587.18 348.70, 585.35 349.91, 581.49 351.32 C 577.62 352.73, 575.04 353.52, 570.46 354.56 C 565.89 355.61, 563.10 356.07, 558.61 356.53 C 554.12 356.99, 551.61 357.05, 548.01 356.88 C 544.40 356.70, 542.83 356.11, 540.59 355.65 C 538.35 355.18, 537.91 355.18, 536.80 354.55 C 535.68 353.91, 535.84 352.72, 535.03 352.48 C 534.22 352.24, 533.06 352.28, 532.75 353.35 C 532.44 354.42, 532.25 356.12, 533.48 357.84 C 534.70 359.56, 535.97 360.99, 538.85 361.94 C 541.74 362.89, 543.84 362.62, 547.91 362.57 C 551.97 362.53, 554.44 362.27, 559.17 361.73 C 563.90 361.18, 566.71 360.75, 571.55 359.87 C 576.38 358.99, 579.04 358.45, 583.35 357.31 C 587.67 356.17, 590.00 355.85, 593.12 354.17 C 596.23 352.50, 597.60 351.27, 598.92 348.94 C 600.24 346.61, 600.34 344.96, 599.70 342.52 C 599.07 340.07, 598.22 338.65, 595.74 336.72 C 593.26 334.80, 591.15 334.44, 587.31 332.90 C 583.47 331.36, 580.97 330.62, 576.55 329.00 C 572.12 327.38, 569.46 326.56, 565.18 324.80 C 560.90 323.04, 558.52 322.02, 555.16 320.20 C 551.79 318.38, 550.37 317.19, 548.37 315.70 C 546.37 314.21, 545.66 313.93, 545.16 312.74 C 544.67 311.55, 544.95 311.17, 545.88 309.75 C 546.82 308.33, 547.72 307.40, 549.85 305.63 C 551.98 303.85, 553.53 302.57, 556.55 300.88 C 559.57 299.19, 561.62 298.28, 564.94 297.16 C 568.26 296.05, 570.17 295.66, 573.15 295.30 C 576.13 294.93, 577.58 295.41, 579.82 295.32 C 582.06 295.24, 582.84 295.12, 584.34 294.88 C 585.83 294.63, 586.47 294.82, 587.30 294.08 C 588.12 293.33, 588.75 292.34, 588.47 291.15" style="stroke: black; fill: black;"/><path d="M 643.55,307.65 C 643.44 306.35, 642.80 305.33, 641.24 304.05 C 639.69 302.77, 638.45 301.96, 635.78 301.26 C 633.10 300.55, 631.18 300.23, 627.87 300.53 C 624.56 300.83, 622.73 301.50, 619.24 302.75 C 615.75 304.00, 613.83 304.80, 610.43 306.78 C 607.02 308.75, 605.15 310.01, 602.22 312.62 C 599.30 315.23, 597.78 316.77, 595.80 319.83 C 593.81 322.89, 592.81 324.71, 592.31 327.92 C 591.81 331.12, 592.09 333.07, 593.31 335.87 C 594.53 338.67, 595.73 340.24, 598.41 341.91 C 601.10 343.57, 603.12 344.10, 606.72 344.20 C 610.32 344.29, 612.46 343.67, 616.43 342.39 C 620.40 341.11, 622.61 340.04, 626.57 337.80 C 630.53 335.56, 632.61 334.03, 636.23 331.19 C 639.85 328.34, 641.66 326.57, 644.67 323.57 C 647.68 320.56, 649.83 318.83, 651.27 316.16 C 652.70 313.49, 652.43 311.54, 651.85 310.23 C 651.27 308.92, 649.77 308.52, 648.36 309.60 C 646.94 310.67, 646.07 312.01, 644.77 315.61 C 643.47 319.22, 643.05 322.13, 641.86 327.62 C 640.67 333.11, 640.01 336.55, 638.84 343.06 C 637.67 349.58, 637.02 353.16, 636.01 360.19 C 634.99 367.21, 634.48 371.03, 633.76 378.19 C 633.04 385.36, 632.75 389.17, 632.39 396.02 C 632.04 402.88, 631.97 406.36, 631.98 412.48 C 632.00 418.59, 632.17 421.57, 632.47 426.58 C 632.77 431.59, 632.93 433.86, 633.48 437.53 C 634.03 441.20, 634.39 442.63, 635.23 444.92 C 636.07 447.22, 636.72 447.92, 637.68 448.99 C 638.64 450.06, 639.29 450.09, 640.04 450.29 C 640.78 450.48, 641.06 450.21, 641.39 449.96 C 641.72 449.70, 641.56 449.33, 641.67 449.01 C 641.78 448.69, 641.88 448.84, 641.95 448.36 C 642.01 447.88, 642.21 447.69, 641.99 446.61 C 641.76 445.53, 641.49 444.99, 640.83 442.97 C 640.16 440.95, 639.49 439.86, 638.65 436.51 C 637.82 433.15, 637.26 431.01, 636.64 426.20 C 636.03 421.38, 635.77 418.42, 635.58 412.42 C 635.40 406.41, 635.43 402.96, 635.71 396.18 C 635.99 389.40, 636.26 385.62, 637.00 378.53 C 637.73 371.43, 638.24 367.64, 639.39 360.71 C 640.53 353.78, 641.21 350.22, 642.72 343.87 C 644.23 337.53, 645.23 334.21, 646.94 328.99 C 648.64 323.77, 650.15 321.35, 651.25 317.78 C 652.35 314.22, 652.77 312.94, 652.45 311.17 C 652.13 309.40, 651.10 308.77, 649.65 308.94 C 648.20 309.10, 647.06 309.86, 645.20 311.99 C 643.34 314.13, 642.81 316.62, 640.34 319.61 C 637.87 322.59, 636.16 324.29, 632.86 326.92 C 629.56 329.55, 627.49 330.91, 623.85 332.77 C 620.21 334.63, 618.05 335.40, 614.66 336.23 C 611.27 337.06, 609.48 336.99, 606.90 336.93 C 604.32 336.88, 603.30 336.66, 601.75 335.95 C 600.20 335.25, 599.69 334.77, 599.17 333.42 C 598.65 332.07, 598.69 331.18, 599.16 329.19 C 599.63 327.21, 600.04 325.86, 601.53 323.51 C 603.01 321.17, 604.16 319.66, 606.58 317.47 C 609.00 315.28, 610.69 314.13, 613.65 312.57 C 616.60 311.01, 618.42 310.37, 621.34 309.68 C 624.26 308.98, 625.73 309.04, 628.24 309.09 C 630.75 309.14, 631.89 309.61, 633.91 309.92 C 635.92 310.23, 636.73 310.51, 638.31 310.64 C 639.90 310.76, 640.79 311.12, 641.84 310.52 C 642.89 309.93, 643.67 308.94, 643.55 307.65" style="stroke: black; fill: black;"/><path d="M 665.60,360.04 C 666.47 360.94, 667.46 361.08, 669.21 361.32 C 670.95 361.56, 672.14 361.48, 674.31 361.24 C 676.49 360.99, 677.82 360.52, 680.08 360.08 C 682.34 359.63, 683.51 359.46, 685.63 359.02 C 687.75 358.58, 689.04 358.35, 690.67 357.88 C 692.30 357.41, 692.84 357.23, 693.78 356.65 C 694.71 356.07, 694.98 355.58, 695.34 354.98 C 695.71 354.38, 695.66 354.09, 695.62 353.66 C 695.57 353.24, 695.32 353.19, 695.13 352.86 C 694.94 352.52, 695.11 352.40, 694.68 351.97 C 694.26 351.55, 694.00 351.06, 693.00 350.74 C 691.99 350.41, 691.36 350.39, 689.67 350.35 C 687.97 350.32, 686.73 350.45, 684.53 350.58 C 682.32 350.71, 681.06 350.69, 678.66 350.98 C 676.26 351.27, 674.73 351.41, 672.52 352.01 C 670.31 352.61, 669.15 353.04, 667.61 354.00 C 666.07 354.96, 665.23 355.59, 664.83 356.79 C 664.43 358.00, 664.72 359.13, 665.60 360.04" style="stroke: black; fill: black;"/><path d="M 697.64,335.47 C 698.52 334.54, 698.53 333.45, 698.58 332.05 C 698.64 330.65, 698.36 329.93, 697.90 328.48 C 697.44 327.04, 697.00 326.17, 696.27 324.82 C 695.55 323.47, 695.04 322.93, 694.26 321.75 C 693.48 320.57, 693.39 319.77, 692.36 318.92 C 691.33 318.06, 690.35 317.30, 689.09 317.47 C 687.83 317.65, 686.59 318.68, 686.05 319.80 C 685.51 320.93, 686.06 321.98, 686.40 323.09 C 686.74 324.19, 687.33 324.34, 687.75 325.34 C 688.17 326.34, 688.15 326.85, 688.51 328.10 C 688.88 329.34, 689.02 330.24, 689.57 331.55 C 690.13 332.86, 690.36 333.62, 691.28 334.66 C 692.20 335.69, 692.90 336.54, 694.17 336.70 C 695.44 336.87, 696.75 336.40, 697.64 335.47" style="stroke: black; fill: black;"/><path d="M 717.59,297.10 C 718.86 297.32, 719.77 297.01, 721.09 296.37 C 722.41 295.73, 723.69 295.13, 724.20 293.89 C 724.71 292.66, 724.32 291.36, 723.62 290.19 C 722.93 289.02, 721.92 288.27, 720.72 288.05 C 719.51 287.83, 718.79 288.07, 717.60 289.07 C 716.42 290.06, 715.82 290.94, 714.80 293.01 C 713.78 295.09, 713.37 296.64, 712.52 299.43 C 711.67 302.22, 711.26 303.95, 710.54 306.97 C 709.82 309.99, 709.23 311.60, 708.91 314.53 C 708.59 317.45, 708.47 319.04, 708.95 321.59 C 709.43 324.13, 709.89 325.46, 711.32 327.24 C 712.74 329.02, 713.86 329.85, 716.07 330.51 C 718.27 331.16, 719.79 331.19, 722.34 330.52 C 724.89 329.85, 726.32 329.06, 728.83 327.15 C 731.35 325.23, 732.43 323.58, 734.93 320.96 C 737.43 318.34, 738.78 316.76, 741.35 314.04 C 743.93 311.32, 745.29 309.79, 747.82 307.36 C 750.34 304.92, 751.79 303.78, 753.97 301.88 C 756.14 299.97, 757.17 299.10, 758.70 297.84 C 760.24 296.58, 760.50 296.20, 761.64 295.58 C 762.78 294.96, 763.77 295.44, 764.38 294.73 C 765.00 294.01, 765.46 292.86, 764.69 291.99 C 763.93 291.11, 762.50 290.33, 760.55 290.35 C 758.60 290.37, 757.21 290.85, 754.94 292.08 C 752.67 293.31, 751.55 294.38, 749.19 296.50 C 746.84 298.62, 745.69 300.11, 743.17 302.68 C 740.66 305.25, 739.27 306.78, 736.62 309.36 C 733.96 311.94, 732.50 313.41, 729.89 315.56 C 727.28 317.72, 725.66 318.57, 723.56 320.15 C 721.46 321.72, 720.66 322.49, 719.37 323.43 C 718.08 324.37, 717.73 324.71, 717.09 324.85 C 716.46 324.99, 716.40 324.90, 716.22 324.14 C 716.03 323.38, 716.00 322.71, 716.17 321.04 C 716.33 319.38, 716.52 318.16, 717.04 315.83 C 717.56 313.49, 717.87 311.97, 718.78 309.36 C 719.70 306.76, 720.50 305.28, 721.60 302.80 C 722.70 300.31, 723.56 299.09, 724.29 296.95 C 725.02 294.80, 725.39 293.79, 725.27 292.07 C 725.15 290.34, 724.82 289.43, 723.69 288.31 C 722.57 287.19, 721.29 286.61, 719.64 286.47 C 717.99 286.32, 716.56 286.56, 715.43 287.59 C 714.31 288.62, 714.15 290.09, 714.01 291.63 C 713.87 293.18, 714.02 294.21, 714.74 295.31 C 715.45 296.40, 716.32 296.89, 717.59 297.10" style="stroke: black; fill: black;"/></g></svg>